<?xml version="1.0" encoding="UTF-8" standalone="no"?>
<!-- Created with Inkscape (http://www.inkscape.org/) -->

<svg
   xmlns:dc="http://purl.org/dc/elements/1.1/"
   xmlns:cc="http://creativecommons.org/ns#"
   xmlns:rdf="http://www.w3.org/1999/02/22-rdf-syntax-ns#"
   xmlns:svg="http://www.w3.org/2000/svg"
   xmlns="http://www.w3.org/2000/svg"
   xmlns:sodipodi="http://sodipodi.sourceforge.net/DTD/sodipodi-0.dtd"
   xmlns:inkscape="http://www.inkscape.org/namespaces/inkscape"
   width="144"
   height="144"
   viewBox="0 0 144 144"
   id="svg3336"
   version="1.1"
   inkscape:version="0.91 r13725"
   sodipodi:docname="gw_logo.svg"
   inkscape:export-filename="/home/daniel/SparkleShare/sync/06_projects_internal/03_groundwork/01_logos/gw_logo_1.png"
   inkscape:export-xdpi="90"
   inkscape:export-ydpi="90">
  <defs
     id="defs3338">
    <filter
       style="color-interpolation-filters:sRGB;"
       inkscape:label="Drop Shadow"
       id="filter5346">
      <feFlood
         flood-opacity="0.498039"
         flood-color="rgb(0,0,0)"
         result="flood"
         id="feFlood5348" />
      <feComposite
         in="flood"
         in2="SourceGraphic"
         operator="in"
         result="composite1"
         id="feComposite5350" />
      <feGaussianBlur
         in="composite1"
         stdDeviation="2.6"
         result="blur"
         id="feGaussianBlur5352" />
      <feOffset
         dx="1"
         dy="1"
         result="offset"
         id="feOffset5354" />
      <feComposite
         in="SourceGraphic"
         in2="offset"
         operator="over"
         result="fbSourceGraphic"
         id="feComposite5356" />
      <feColorMatrix
         result="fbSourceGraphicAlpha"
         in="fbSourceGraphic"
         values="0 0 0 -1 0 0 0 0 -1 0 0 0 0 -1 0 0 0 0 1 0"
         id="feColorMatrix5550" />
      <feFlood
         id="feFlood5552"
         flood-opacity="0.498039"
         flood-color="rgb(0,0,0)"
         result="flood"
         in="fbSourceGraphic" />
      <feComposite
         id="feComposite5554"
         in2="fbSourceGraphic"
         in="flood"
         operator="in"
         result="composite1" />
      <feGaussianBlur
         id="feGaussianBlur5556"
         in="composite1"
         stdDeviation="1"
         result="blur" />
      <feOffset
         id="feOffset5558"
         dx="0"
         dy="1.38778e-16"
         result="offset" />
      <feComposite
         id="feComposite5560"
         in2="offset"
         in="fbSourceGraphic"
         operator="over"
         result="fbSourceGraphic" />
      <feColorMatrix
         result="fbSourceGraphicAlpha"
         in="fbSourceGraphic"
         values="0 0 0 -1 0 0 0 0 -1 0 0 0 0 -1 0 0 0 0 1 0"
         id="feColorMatrix5562" />
      <feFlood
         id="feFlood5564"
         flood-opacity="0.498039"
         flood-color="rgb(0,0,0)"
         result="flood"
         in="fbSourceGraphic" />
      <feComposite
         id="feComposite5566"
         in2="fbSourceGraphic"
         in="flood"
         operator="in"
         result="composite1" />
      <feGaussianBlur
         id="feGaussianBlur5568"
         in="composite1"
         stdDeviation="1.38778e-16"
         result="blur" />
      <feOffset
         id="feOffset5570"
         dx="0"
         dy="1.38778e-16"
         result="offset" />
      <feComposite
         id="feComposite5572"
         in2="offset"
         in="fbSourceGraphic"
         operator="over"
         result="composite2" />
    </filter>
    <filter
       style="color-interpolation-filters:sRGB;"
       inkscape:label="Drop Shadow"
       id="filter5802">
      <feFlood
         flood-opacity="0.498039"
         flood-color="rgb(0,0,0)"
         result="flood"
         id="feFlood5804" />
      <feComposite
         in="flood"
         in2="SourceGraphic"
         operator="in"
         result="composite1"
         id="feComposite5806" />
      <feGaussianBlur
         in="composite1"
         stdDeviation="2"
         result="blur"
         id="feGaussianBlur5808" />
      <feOffset
         dx="0.5"
         dy="0.5"
         result="offset"
         id="feOffset5810" />
      <feComposite
         in="SourceGraphic"
         in2="offset"
         operator="over"
         result="composite2"
         id="feComposite5812" />
    </filter>
    <filter
       style="color-interpolation-filters:sRGB"
       inkscape:label="Drop Shadow"
       id="filter5802-3">
      <feFlood
         flood-opacity="0.498039"
         flood-color="rgb(0,0,0)"
         result="flood"
         id="feFlood5804-4" />
      <feComposite
         in="flood"
         in2="SourceGraphic"
         operator="in"
         result="composite1"
         id="feComposite5806-5" />
      <feGaussianBlur
         in="composite1"
         stdDeviation="2"
         result="blur"
         id="feGaussianBlur5808-4" />
      <feOffset
         dx="0.5"
         dy="0.5"
         result="offset"
         id="feOffset5810-7" />
      <feComposite
         in="SourceGraphic"
         in2="offset"
         operator="over"
         result="composite2"
         id="feComposite5812-3" />
    </filter>
    <filter
       style="color-interpolation-filters:sRGB;"
       inkscape:label="Drop Shadow"
       id="filter5404">
      <feFlood
         flood-opacity="0.498039"
         flood-color="rgb(0,0,0)"
         result="flood"
         id="feFlood5406" />
      <feComposite
         in="flood"
         in2="SourceGraphic"
         operator="in"
         result="composite1"
         id="feComposite5408" />
      <feGaussianBlur
         in="composite1"
         stdDeviation="2"
         result="blur"
         id="feGaussianBlur5410" />
      <feOffset
         dx="0.5"
         dy="0.5"
         result="offset"
         id="feOffset5412" />
      <feComposite
         in="SourceGraphic"
         in2="offset"
         operator="over"
         result="composite2"
         id="feComposite5414" />
    </filter>
    <filter
       style="color-interpolation-filters:sRGB;"
       inkscape:label="Drop Shadow"
       id="filter5416">
      <feFlood
         flood-opacity="0.498039"
         flood-color="rgb(0,0,0)"
         result="flood"
         id="feFlood5418" />
      <feComposite
         in="flood"
         in2="SourceGraphic"
         operator="in"
         result="composite1"
         id="feComposite5420" />
      <feGaussianBlur
         in="composite1"
         stdDeviation="2"
         result="blur"
         id="feGaussianBlur5422" />
      <feOffset
         dx="0.5"
         dy="0.5"
         result="offset"
         id="feOffset5424" />
      <feComposite
         in="SourceGraphic"
         in2="offset"
         operator="over"
         result="composite2"
         id="feComposite5426" />
    </filter>
    <filter
       style="color-interpolation-filters:sRGB;"
       inkscape:label="Drop Shadow"
       id="filter5428">
      <feFlood
         flood-opacity="0.498039"
         flood-color="rgb(0,0,0)"
         result="flood"
         id="feFlood5430" />
      <feComposite
         in="flood"
         in2="SourceGraphic"
         operator="out"
         result="composite1"
         id="feComposite5432" />
      <feGaussianBlur
         in="composite1"
         stdDeviation="2"
         result="blur"
         id="feGaussianBlur5434" />
      <feOffset
         dx="0.5"
         dy="0.5"
         result="offset"
         id="feOffset5436" />
      <feComposite
         in="offset"
         in2="SourceGraphic"
         operator="atop"
         result="composite2"
         id="feComposite5438" />
    </filter>
    <filter
       style="color-interpolation-filters:sRGB"
       inkscape:label="Drop Shadow"
       id="filter4661-8">
      <feFlood
         flood-opacity="0.498039"
         flood-color="rgb(0,0,0)"
         result="flood"
         id="feFlood4663-3" />
      <feComposite
         in="flood"
         in2="SourceGraphic"
         operator="out"
         result="composite1"
         id="feComposite4665-7" />
      <feGaussianBlur
         in="composite1"
         stdDeviation="0.3"
         result="blur"
         id="feGaussianBlur4667-9" />
      <feOffset
         dx="0.5"
         dy="0.5"
         result="offset"
         id="feOffset4669-3" />
      <feComposite
         in="offset"
         in2="SourceGraphic"
         operator="atop"
         result="composite2"
         id="feComposite4671-7" />
    </filter>
    <filter
       style="color-interpolation-filters:sRGB;"
       inkscape:label="Drop Shadow"
       id="filter6027">
      <feFlood
         flood-opacity="0.498039"
         flood-color="rgb(0,0,0)"
         result="flood"
         id="feFlood6029" />
      <feComposite
         in="flood"
         in2="SourceGraphic"
         operator="out"
         result="composite1"
         id="feComposite6031" />
      <feGaussianBlur
         in="composite1"
         stdDeviation="1"
         result="blur"
         id="feGaussianBlur6033" />
      <feOffset
         dx="0.5"
         dy="0.5"
         result="offset"
         id="feOffset6035" />
      <feComposite
         in="offset"
         in2="SourceGraphic"
         operator="atop"
         result="composite2"
         id="feComposite6037" />
    </filter>
    <filter
       style="color-interpolation-filters:sRGB;"
       inkscape:label="Drop Shadow"
       id="filter6051">
      <feFlood
         flood-opacity="0.498039"
         flood-color="rgb(0,0,0)"
         result="flood"
         id="feFlood6053" />
      <feComposite
         in="flood"
         in2="SourceGraphic"
         operator="out"
         result="composite1"
         id="feComposite6055" />
      <feGaussianBlur
         in="composite1"
         stdDeviation="0.5"
         result="blur"
         id="feGaussianBlur6057" />
      <feOffset
         dx="0.5"
         dy="0.5"
         result="offset"
         id="feOffset6059" />
      <feComposite
         in="offset"
         in2="SourceGraphic"
         operator="atop"
         result="composite2"
         id="feComposite6061" />
    </filter>
  </defs>
  <sodipodi:namedview
     id="base"
     pagecolor="#ffffff"
     bordercolor="#666666"
     borderopacity="1.0"
     inkscape:pageopacity="0.0"
     inkscape:pageshadow="2"
     inkscape:zoom="1.426367"
     inkscape:cx="170.08791"
     inkscape:cy="-25.063986"
     inkscape:document-units="px"
     inkscape:current-layer="layer1"
     showgrid="false"
     units="px"
     inkscape:window-width="1920"
     inkscape:window-height="1171"
     inkscape:window-x="1920"
     inkscape:window-y="0"
     inkscape:window-maximized="1"
     inkscape:snap-global="false" />
  <metadata
     id="metadata3341">
    <rdf:RDF>
      <cc:Work
         rdf:about="">
        <dc:format>image/svg+xml</dc:format>
        <dc:type
           rdf:resource="http://purl.org/dc/dcmitype/StillImage" />
        <dc:title></dc:title>
      </cc:Work>
    </rdf:RDF>
  </metadata>
  <g
     inkscape:groupmode="layer"
     id="layer2"
     inkscape:label="bg"
     style="display:inline"
     sodipodi:insensitive="true" />
  <g
     inkscape:label="Ebene 1"
     inkscape:groupmode="layer"
     id="layer1"
     transform="translate(0,-908.36216)"
     style="display:inline">
    <ellipse
       style="display:inline;opacity:1;fill:none;fill-opacity:1;fill-rule:nonzero;stroke:#333333;stroke-width:13.90806293;stroke-linecap:butt;stroke-linejoin:round;stroke-miterlimit:4;stroke-dasharray:none;stroke-dashoffset:0;stroke-opacity:1;filter:url(#filter5416)"
       id="path5946"
       cx="72.417778"
       cy="979.68549"
       rx="60.457001"
       ry="62.353447" />
    <ellipse
       style="opacity:1;fill:#918a6f;fill-opacity:1;fill-rule:nonzero;stroke:#ffffff;stroke-width:2.7100966;stroke-linecap:butt;stroke-linejoin:round;stroke-miterlimit:4;stroke-dasharray:none;stroke-dashoffset:0;stroke-opacity:1"
       id="path6166"
       cx="72.311676"
       cy="980.12555"
       rx="52.819416"
       ry="55.448963" />
    <path
       inkscape:connector-curvature="0"
       id="path12"
       d="m 67.911355,969.25256 c -0.07222,0 -0.143357,0.0109 -0.214507,0.0196 -0.540507,0.0752 -1.08314,0.21268 -1.607715,0.37761 -0.47998,0.16504 -0.932347,0.4187 -1.32206,0.74868 -0.389721,0.32997 -0.641386,0.77647 -0.761381,1.25644 -0.105128,0.43505 -0.105128,0.8736 0,1.30854 0.105129,0.38993 0.329186,0.74552 0.644571,1.01564 0.164595,0.13496 0.28459,0.30425 0.345121,0.5142 0.08919,0.28506 0.178389,0.5699 0.253783,0.83981 0.194336,0.73505 0.599979,1.39303 1.185082,1.88793 0.254861,0.22499 0.599977,0.30283 0.93022,0.22794 0.02977,-0.0153 0.06161,-0.0196 0.09133,-0.0196 0.105129,0 0.207069,0.0469 0.266537,0.1367 0.06054,0.0905 0.105117,0.19458 0.105117,0.29945 0,0.0752 -0.0096,0.14836 -0.03932,0.20832 -0.07539,0.17997 -0.138042,0.36485 -0.182645,0.55998 -0.105118,0.47986 -0.153971,0.97618 -0.123178,1.47151 0.0297,0.49491 0.182645,0.97269 0.422636,1.39325 l 1.126673,1.91987 0.826155,1.77129 c 0.09026,0.13485 0.134867,0.29738 0.149732,0.70301 0,0.23992 0.01383,0.46089 0.01383,0.56597 l 0,0.40988 c 0,0.67542 -0.03398,1.31781 -0.12425,1.99214 -0.05947,0.51071 -0.101934,1.02044 -0.116808,1.53016 -0.03077,0.66049 -0.05947,1.30724 -0.10406,2.01122 -0.03077,0.48008 -0.124242,0.97269 -0.273971,1.45269 -0.0446,0.16461 -0.131676,0.33346 -0.266538,0.46831 l -1.230737,1.15223 -0.781557,0.69024 c -1.334804,0.59999 -2.610144,1.33686 -3.795225,2.20654 l -0.969517,0.703 -0.515015,0.55322 -0.930219,0.78157 -0.761387,-0.2994 c -1.710715,1.0947 -3.481428,2.0993 -5.371289,3.0148 l -0.423174,0.2081 c -0.614943,-0.5554 -1.30071,-1.0184 -2.050737,-1.3933 -0.404893,-0.1954 -0.839001,-0.3622 -1.288936,-0.4821 -0.870003,-0.2251 -1.784722,0.06 -2.36972,0.7359 -0.434947,0.4949 -0.826225,1.0492 -1.126251,1.6343 -0.134943,0.2548 -0.330887,0.4662 -0.58586,0.6308 -0.209995,0.12 -0.40789,0.2888 -0.572887,0.4693 -0.41998,0.4344 -0.774227,0.9005 -1.07421,1.4251 -0.299993,0.4949 -0.647013,0.9695 -1.022082,1.4198 -0.194963,0.2251 -0.373356,0.4672 -0.553352,0.7221 -0.179997,0.2708 -0.359775,0.5702 -0.494739,0.8856 l -0.559828,1.2168 -0.149735,0.2549 c -0.075,0.045 -0.13273,0.085 -0.162784,0.1296 -0.239994,0.3897 -0.480621,0.7646 -0.735583,1.1851 -0.375058,0.6148 -0.688426,1.2934 -0.898465,1.9528 -0.284907,0.8102 -0.543161,1.6492 -0.768178,2.5199 l -0.149735,0.5989 57.723148,0.5841 c -0.974436,-2.7259 -0.132779,-5.7265 -1.834394,-7.5567 -0.299447,-0.1954 -0.644574,-0.2995 -0.988629,-0.2995 -0.270786,-0.015 -0.538386,0.075 -0.704045,0.2411 -0.104049,0.074 -0.211311,0.1614 -0.331303,0.2666 -0.450239,0.3896 -0.946145,0.7178 -1.471796,1.0023 l -0.598902,0.3324 -0.553252,0.2411 c -0.134856,0.074 -0.242114,0.1635 -0.332377,0.2538 -0.119991,0.1348 -0.177336,0.3015 -0.162472,0.4811 0,0.1953 0.0287,0.4067 0.05841,0.5861 0.01586,0.045 0.01378,0.072 0.01378,0.1168 0,0.1656 -0.07327,0.3313 -0.209197,0.4364 l -0.884555,0.7232 -0.149737,0.013 c -0.359976,0 -0.662623,-0.2845 -0.677488,-0.6446 l -0.0255,-0.9897 0.0584,-2.0696 0.04565,-2.2332 -0.0329,-1.9528 c 0,-0.1348 0.01907,-0.2665 0.01907,-0.4173 0,-0.48 -0.04778,-0.9928 -0.12318,-1.458 -0.105128,-0.7348 -0.162473,-1.4696 -0.162473,-2.2205 0,-0.4948 0.03077,-1.0013 0.09134,-1.4973 l 0.162457,-1.6204 0.09134,-1.3539 -0.03292,-1.48456 0.05842,-1.70534 -0.02552,-3.57445 -0.19539,-4.33573 c 0.0149,-0.10465 0.09026,-0.17409 0.19539,-0.18902 0.209197,-0.0294 0.405644,-0.0948 0.585111,-0.21443 0.22512,-0.13495 0.448108,-0.29737 0.658378,-0.46198 0.224062,-0.18052 0.344054,-0.46405 0.344054,-0.74867 0,-0.18052 -0.0446,-0.3642 -0.149722,-0.51496 -0.224061,-0.36006 -0.524578,-0.65526 -0.88457,-0.86543 -0.180525,-0.10465 -0.347241,-0.24112 -0.482099,-0.39079 -0.524577,-0.55432 -0.853767,-1.24772 -0.944029,-1.90723 -0.149722,-1.00452 -0.265469,-2.00653 -0.370596,-3.1314 -0.04566,-0.39004 -0.141232,-0.78389 -0.305834,-1.15888 -0.135914,-0.32986 -0.370596,-0.59922 -0.671113,-0.79413 -0.195389,-0.13495 -0.408831,-0.25116 -0.618028,-0.37118 -2.070698,-1.21491 -4.345276,-2.02713 -6.745179,-2.40223 -0.465103,-0.0752 -0.947219,-0.048 -1.366669,0.0719 -0.764555,0.225 -1.513193,0.43506 -2.278821,0.69003 -0.374847,0.11991 -0.779427,0.19785 -1.185076,0.22783 -0.494849,0.0447 -0.975887,0.10356 -1.470725,0.20843 -0.119996,0.0294 -0.243178,0.0458 -0.378042,0.0458 -0.164591,0 -0.344053,-0.0262 -0.49484,-0.072 -0.248487,-0.0785 -0.465116,-0.22881 -0.494845,-0.23448 -0.178399,-0.26838 -0.346183,-0.53381 -0.539447,-0.8918 -0.254856,-0.43506 -0.431124,-0.89824 -0.52139,-1.39314 -0.02977,-0.20995 -0.07645,-0.42601 -0.136985,-0.65111 -0.07433,-0.34491 -0.179463,-0.69003 -0.299457,-1.03494 -0.119995,-0.36005 -0.333431,-0.67345 -0.618021,-0.89845 -0.269722,-0.24004 -0.58086,-0.432 -0.911107,-0.61198 -0.191143,-0.10138 -0.408834,-0.15621 -0.625462,-0.15621 z m 13.821661,9.53079 0.734833,0.0131 0.644571,0.0785 1.008806,0.19523 c 0.04565,0.0153 0.102992,0.0447 0.117862,0.10465 l 0.272918,0.58582 0.189013,0.42938 0.136988,0.37805 0.20814,0.49479 0.345111,0.69025 0.214499,0.37695 0.241058,0.57982 0.220873,0.67641 0.124237,0.50863 0.03932,0.19546 c 0.01489,0.0294 0.01907,0.073 0.01907,0.10355 0,0.20919 -0.180524,0.3908 -0.390778,0.3908 l -0.01282,0 c -0.07538,0 -0.165659,-0.0272 -0.241041,-0.0719 l -0.481041,-0.48215 -0.508657,-0.53938 -0.299443,-0.32605 -0.24,-0.3642 -0.182638,-0.34512 c -0.134873,-0.28571 -0.272918,-0.56598 -0.378045,-0.86651 l -0.670055,-0.76776 -0.83996,-0.93126 -0.677487,-0.65711 c -0.0446,-0.0447 -0.04672,-0.10683 0.01378,-0.13681 l 0.19539,-0.2408 c 0.04457,-0.0447 0.119975,-0.0719 0.195389,-0.0719 z m -7.213475,6.34041 c 0.119995,0 0.221941,0.0469 0.312199,0.13703 l 0.455556,0.34501 0.371662,0.42372 c 0.105129,0.12002 0.162471,0.26653 0.162471,0.41631 0,0.10465 -0.0096,0.21137 -0.03932,0.28669 -0.04458,0.17943 -0.07858,0.36213 -0.123185,0.52674 -0.04565,0.31536 -0.147602,0.61274 -0.267597,0.85267 -0.179454,0.34512 -0.364229,0.67542 -0.559618,1.03537 -0.119996,0.2251 -0.253797,0.44813 -0.403523,0.65732 -0.149725,0.21028 -0.281399,0.43429 -0.416265,0.64457 -0.180517,0.25487 -0.346177,0.50864 -0.540503,0.74868 -0.254854,0.34501 -0.526703,0.67749 -0.82722,1.02261 -0.04459,0.0589 -0.103003,0.0774 -0.162469,0.0774 -0.02977,0 -0.04994,0 -0.06474,-0.0185 -0.06054,0 -0.104071,-0.0578 -0.104071,-0.11686 -0.01595,-0.0305 -0.01381,-0.0621 -0.01381,-0.0916 0,-0.11991 0.03291,-0.23993 0.07859,-0.34512 l 0.208131,-0.61154 0.176269,-0.51507 c 0.239993,-0.73483 0.466178,-1.51425 0.67643,-2.51888 0.0754,-0.39069 0.16566,-0.77625 0.195389,-0.91219 0.06054,-0.28451 0.09133,-0.57339 0.09133,-0.85899 0.0149,-0.1646 0.05734,-0.3122 0.116808,-0.46198 l 0.29945,-0.49479 c 0.0754,-0.13485 0.22831,-0.22838 0.378042,-0.22838 z m 5.995488,9.59645 c 0.09132,0 0.179451,0.0382 0.247416,0.0981 0.195389,0.14967 0.323871,0.38436 0.384403,0.6244 l 0.07752,0.81441 0.09134,0.79432 0.221931,1.58859 c 0.0446,0.38971 0.07752,0.7635 0.07752,1.13838 0,0.35999 -0.0329,0.71039 -0.07752,1.05559 -0.01586,0.1348 -0.01378,0.2686 -0.01378,0.4034 0,0.3897 0.06054,0.7784 0.195406,1.1384 0.105106,0.2708 0.222988,0.5225 0.357844,0.7624 0.345112,0.6446 0.602108,1.32 0.781559,2.024 0.120007,0.496 0.193274,0.994 0.208139,1.5048 0.03077,0.824 0.139102,1.6502 0.319627,2.4604 0.105128,0.48 0.176279,0.8686 0.266542,1.2892 0.01489,0.1046 0.149722,0.2081 0.299459,0.2081 0.02969,0 0.0616,0 0.09131,-0.013 l 0.357862,0.013 c 0.0754,0 0.153982,0.062 0.168847,0.137 0.105128,0.3599 0.149738,0.7199 0.149738,1.08 0,0.3451 -0.04674,0.6859 -0.13593,1.0161 -0.0754,0.3303 -0.316439,0.5852 -0.63182,0.6903 -0.26973,0.089 -0.554324,0.1646 -0.83996,0.1953 -0.269729,0.045 -0.494848,0.239 -0.540517,0.4938 -0.02969,0.1201 -0.04565,0.2273 -0.04565,0.3324 l 0,0.013 c 0,0.2558 -0.16566,0.4544 -0.389722,0.5149 -0.225118,0.074 -0.465103,0.1147 -0.690238,0.1296 -0.34511,0.03 -0.688108,0.077 -1.048084,0.137 l -1.09375,0.033 -1.276407,-0.059 -1.015175,-0.1698 -0.650943,-0.1498 -0.989691,-0.1953 -0.671117,-0.1297 -0.813413,-0.157 1.84876,-1.2563 0.08495,-0.059 0.345117,-0.1047 0.690232,-0.1688 1.341179,-0.7943 -0.07859,-0.2676 c -0.105128,-0.4651 -0.327064,-0.9185 -0.611646,-1.3082 -0.239993,-0.3451 -0.471494,-0.7041 -0.650948,-1.0938 -0.150792,-0.2995 -0.219816,-0.6011 -0.234683,-0.9313 -0.06054,-1.0343 -0.244235,-2.0654 -0.513954,-3.0848 -0.315384,-1.1107 -0.689174,-2.2523 -1.093752,-3.3929 -0.210261,-0.5542 -0.313262,-1.0778 -0.357865,-1.5875 -0.01595,-0.12 -0.03505,-0.2453 -0.02018,-0.3653 0,-0.074 0.03291,-0.14758 0.07857,-0.20808 l 0.403523,-0.37695 0.481043,-0.37172 0.449181,-0.40356 0.554311,-0.49479 0.345116,-0.3642 1.516386,-1.64699 0.195393,-0.25377 0.09132,-0.13703 c 0.0892,-0.13484 0.194332,-0.26859 0.29946,-0.40355 0.05948,-0.0752 0.11999,-0.12416 0.19539,-0.16983 l 0.611652,-0.37064 0.449181,-0.16242 c 0.03719,-0.0153 0.07753,-0.0273 0.116804,-0.0327 0.02978,0 0.06161,-0.0109 0.09134,-0.0109 z m -12.65571,2.58458 1.276401,3.48311 0.03184,0.1295 0.02658,0.137 0.494838,1.6533 0.422636,1.6928 0.313261,1.081 0.208129,0.807 0.449184,2.0441 0.12318,0.6446 c 0.07539,0.3303 0.223003,0.6307 0.462993,0.8856 0.08919,0.089 0.194324,0.1625 0.29945,0.2082 0.254859,0.1349 0.528827,0.1954 0.813419,0.1954 0.04458,0 0.105118,0 0.149725,-0.013 0.195387,-0.016 0.387591,0.058 0.507587,0.2081 0.269721,0.3144 0.435379,0.6882 0.494844,1.0938 l 0,0.058 c 0,0.074 -0.01595,0.1487 -0.04565,0.2083 l -0.553247,0.8855 -0.104071,0.1689 -1.243483,0.703 c -0.09026,0.046 -0.149727,0.1486 -0.149727,0.2538 l 0,0.046 0.104061,0.4035 -0.422633,-0.091 c -0.540501,-0.1359 -1.094811,-0.189 -1.679919,-0.189 -0.330254,0 -0.672184,0.014 -1.002433,0.058 -0.645636,0.091 -1.304011,0.206 -1.97938,0.3706 -0.690231,0.1657 -1.394272,0.2591 -2.129106,0.274 -0.494837,0.015 -0.992869,-0.048 -1.457979,-0.1826 -0.195388,-0.045 -0.421582,-0.1036 -0.631839,-0.1498 -0.434315,-0.074 -0.82084,-0.2835 -1.106499,-0.5989 -0.210246,-0.2103 -0.46511,-0.4938 -0.735889,-0.7487 l -0.676424,-0.9631 -0.371667,-0.5989 -0.409897,-0.5861 -0.357855,-0.5204 -0.565998,-0.8729 -0.273973,-0.4364 -0.390776,-0.7943 -0.286073,-0.6308 -0.195291,-0.3907 -0.162783,-0.3122 c -0.569911,-1.0354 -1.289351,-1.9943 -2.174342,-2.8194 l 0.377619,-0.077 1.035032,-0.222 c 0.704984,-0.1496 1.378236,-0.3588 2.037666,-0.6445 0.570249,-0.24 1.003496,-0.4185 1.438879,-0.599 0.524574,-0.2101 1.051274,-0.5543 1.516384,-0.9897 l 0.7359,-0.6179 0.625462,-0.6319 0.409897,-0.34508 0.461916,-0.34513 0.436446,-0.3122 0.540504,-0.33237 0.390779,-0.2081 0.41626,-0.20821 0.436441,-0.21453 0.468301,-0.23458 0.345119,-0.1827 0.312191,-0.19535 0.299458,-0.16253 0.644572,-0.27285 z"
       style="display:inline;fill:#ffcc00;fill-opacity:1;filter:url(#filter6051)"
       transform="matrix(1.1761074,0,0,1.1289434,-10.0143,-131.26856)"
       sodipodi:nodetypes="cccccccccccscscccccccssccccccccccccccccccccccccccccccccccccccccccsccccccccscsccccccccccscccccccccccccscccccccccccccccccccccccccsssccccccccccccccccccsccccccccsccsccccccccccccccccscsccccccscccsccccsscccccccccccccccccccccccccccccccccccccccccccccccccccscccsccccscccscccccccccccccccccccccccccccccccccccccc" />
    <text
       xml:space="preserve"
       style="font-style:normal;font-weight:normal;font-size:27.69309235px;line-height:125%;font-family:sans-serif;letter-spacing:0px;word-spacing:0px;display:inline;fill:#333333;fill-opacity:1;stroke:none;stroke-width:1px;stroke-linecap:butt;stroke-linejoin:miter;stroke-opacity:1;filter:url(#filter4661-8)"
       x="44.049988"
       y="1023.5075"
       id="text4333-8"
       sodipodi:linespacing="125%"
       transform="matrix(0.49728941,0,0,0.47327567,13.187278,470.8852)"><tspan
         sodipodi:role="line"
         id="tspan4335-7"
         x="44.049988"
         y="1023.5075"
         style="font-style:normal;font-variant:normal;font-weight:bold;font-stretch:normal;font-size:27.69396973px;line-height:125%;font-family:Lato;-inkscape-font-specification:'Lato, Bold';text-align:start;writing-mode:lr-tb;text-anchor:start;fill:#333333;fill-opacity:1">groundwork</tspan></text>
  </g>
  <g
     inkscape:groupmode="layer"
     id="layer3"
     inkscape:label="fg"
     style="display:inline"
     sodipodi:insensitive="true" />
</svg>
